<svg width="64" height="64" viewBox="0 0 64 64" fill="none" xmlns="http://www.w3.org/2000/svg">
<path fill-rule="evenodd" clip-rule="evenodd" d="M47.8852 18.2707C46.9172 18.2333 46.0158 17.828 45.3678 17.1507C45.2505 17.02 44.7758 16.4307 43.6692 14.356C42.3972 11.9773 39.9332 10.5 37.2398 10.5H26.8078C24.1572 10.5 21.7118 11.9427 20.4318 14.2627C19.2665 16.372 18.7838 16.9933 18.6532 17.1373C17.9838 17.836 17.0825 18.244 16.1652 18.284C10.9332 18.284 6.6745 22.54 6.6665 27.772V42.8173C6.6665 49.5907 12.1785 55.1027 18.9492 55.1027H45.0505C51.8238 55.1027 57.3332 49.5907 57.3332 42.8173V27.7667C57.3332 22.5293 53.0718 18.2707 47.8852 18.2707Z" stroke="#E04C26" stroke-width="2"/>
<circle cx="32" cy="34.6665" r="8" stroke="#E04C26" stroke-width="2"/>
</svg>
