<svg width="64" height="64" viewBox="0 0 64 64" fill="none" xmlns="http://www.w3.org/2000/svg">
<path fill-rule="evenodd" clip-rule="evenodd" d="M50.8571 50.8531C42.7074 59.0038 30.6396 60.7647 20.7639 56.1975C19.306 55.6106 18.1108 55.1362 16.9745 55.1362C13.8095 55.1549 9.86994 58.2238 7.82245 56.1788C5.77497 54.1311 8.8462 50.1884 8.8462 47.0043C8.8462 45.8679 8.3906 44.6939 7.8037 43.2332C3.23438 33.3592 4.99779 21.2873 13.1475 13.1394C23.5511 2.73198 40.4535 2.73198 50.8571 13.1367C61.2794 23.5602 61.2607 40.4484 50.8571 50.8531Z" stroke="#E04C26" stroke-width="2" stroke-linecap="round" stroke-linejoin="round"/>
<path d="M40.5049 32H45.5049" stroke="#E04C26" stroke-width="2" stroke-linecap="round" stroke-linejoin="round"/>
<path d="M29.8145 32H34.8145" stroke="#E04C26" stroke-width="2" stroke-linecap="round" stroke-linejoin="round"/>
<path d="M19.124 32H24.124" stroke="#E04C26" stroke-width="2" stroke-linecap="round" stroke-linejoin="round"/>
</svg>
