<svg width="228" height="51" viewBox="0 0 228 51" fill="none" xmlns="http://www.w3.org/2000/svg">
<path d="M21.3884 50H0.808359C2.13836 48.25 3.11836 44.89 3.11836 39.43V11.57C3.11836 6.11 2.13836 2.75 0.808359 0.999997H8.64836C7.31836 2.75 6.33836 6.11 6.33836 11.57V49.44C11.8684 48.88 18.5884 47.9 21.5984 44.68L21.3884 50ZM42.9899 50H22.4099C23.7399 48.25 24.7199 44.89 24.7199 39.43V11.57C24.7199 6.11 23.7399 2.75 22.4099 0.999997H41.2399L41.4499 6.25H41.3799C39.3499 3.59 35.2199 1.49 32.0699 1.49C29.6199 1.49 27.7299 2.82 27.7299 5.97C27.7299 9.61 30.3199 12.55 36.2699 12.55H39.2099V17.1H39.1399C36.3399 14.93 33.3999 13.11 31.2999 12.13C30.0399 11.64 29.1299 11.36 27.9399 11.22V49.44C33.4699 48.88 40.1899 47.9 43.1999 44.68L42.9899 50ZM49.3315 50H44.0115C44.7815 48.53 46.1815 43.49 46.1815 30.26V6.53L43.8715 0.999997H47.6515L65.2215 43.28V20.74C65.2215 7.51 63.4715 2.4 62.6315 0.999997H67.9515C67.1815 2.4 65.7815 7.51 65.7815 20.74V50H64.0315C58.2215 35.93 52.4815 21.86 46.6715 7.86V30.26C46.6715 43.49 48.4215 48.53 49.3315 50ZM69.5243 47.69L68.7543 34.11H68.8943C70.5743 42.93 74.6343 49.65 80.4443 49.86C85.7643 50.07 88.4943 45.73 87.5843 39.01C86.7443 32.57 82.6143 28.44 78.6243 24.52C74.5643 20.53 69.1743 15.91 69.1743 9.47C69.1743 2.96 73.5143 0.44 79.1843 0.44C83.7343 0.44 85.9043 1.7 87.9343 3.1L88.8443 13.04H88.7043C87.1643 5.69 82.8943 1.21 78.4843 1.14C74.2143 1.07 71.7643 3.03 71.7643 7.72C71.7643 13.32 76.3143 16.96 80.0243 20.53C84.3643 24.73 89.4043 29.42 90.2443 36.98C91.2243 45.66 86.6743 50.56 80.4443 50.56C75.8243 50.56 71.9743 49.16 69.5243 47.69ZM103.894 25.64C103.894 11.57 109.844 0.929998 118.174 0.44C121.744 0.229998 125.034 1.77 127.904 4.99V17.24H127.834C126.294 6.6 122.374 1.56 116.634 1.84C109.984 2.19 106.764 10.45 106.764 22.98C106.764 35.44 111.944 47.41 119.784 47.41C124.614 47.41 128.044 42.16 129.654 35.23H129.864C128.674 41.39 125.244 50.7 117.754 50.56C110.124 50.42 103.894 39.36 103.894 25.64ZM138.18 50H130.76C132.02 47.55 133.07 41.11 133.07 33.76V15.49C133.07 8.14 131.39 2.4 130.76 0.999997H142.31C149.24 0.999997 153.93 3.24 153.44 9.12C153.02 14.3 149.31 16.75 143.85 22.7L149.66 36.7C151.55 41.18 153.58 46.36 155.68 50H149.87C149.87 47.41 148.12 41.81 146.51 37.89L141.47 25.78C138.67 29.91 136.5 35.3 136.5 40.76C136.5 44.4 136.92 46.57 138.18 50ZM133.07 46.64C136.22 33.27 137.83 28.93 145.32 19.27C147.63 16.26 149.66 12.48 149.66 8.91C149.66 5.13 147.42 1.49 141.33 1.49C137.2 1.49 135.66 3.03 135.52 7.44C134.89 20.39 134.26 33.69 133.07 46.64ZM176.901 50C177.181 48.11 177.251 45.73 175.221 38.03L172.001 25.71H163.391C162.411 31.24 161.641 37.82 161.641 44.61C161.641 46.43 161.711 48.18 161.781 50H156.321C157.581 46.64 158.701 42.23 159.541 38.1C164.091 16.82 166.681 10.24 167.381 8.14V0.999997H169.131L177.601 33.27C180.471 44.19 181.451 46.5 183.061 50H176.901ZM167.591 9.12C166.961 10.94 165.071 16.89 163.531 25.15H171.861L167.591 9.12ZM191.646 50H183.806C185.136 48.25 186.116 44.89 186.116 39.43V11.57C186.116 6.11 185.136 2.75 183.806 0.999997H202.636L202.846 6.25H202.776C200.746 3.59 196.616 1.49 193.466 1.49C191.016 1.49 189.126 2.82 189.126 5.97C189.126 9.61 191.716 12.55 197.666 12.55H200.606V17.1H200.536C197.736 14.93 194.796 13.11 192.696 12.13C191.436 11.64 190.526 11.36 189.336 11.22V39.5C189.336 44.89 190.316 48.25 191.646 50ZM204.033 6.6H203.963L204.593 0.999997H226.993L227.623 6.6H227.553C225.873 3.94 223.913 1.56 221.043 1.56C218.453 1.56 217.403 2.82 217.403 5.97V39.36C217.403 44.75 218.383 48.25 219.713 50H211.873C213.203 48.25 214.183 44.75 214.183 39.36V5.97C214.183 2.82 213.203 1.56 210.543 1.56C207.603 1.56 205.643 3.94 204.033 6.6Z" fill="#E04C26"/>
</svg>
