<svg width="1287" height="287" viewBox="0 0 1287 287" fill="none" xmlns="http://www.w3.org/2000/svg">
<path d="M116.76 283H0.0416954C7.5847 273.075 13.1427 254.019 13.1427 223.053V65.047C13.1427 34.081 7.5847 15.025 0.0416954 5.09998H44.5057C36.9627 15.025 31.4047 34.081 31.4047 65.047V279.824C62.7677 276.648 100.88 271.09 117.951 252.828L116.76 283ZM239.271 283H122.553C130.096 273.075 135.654 254.019 135.654 223.053V65.047C135.654 34.081 130.096 15.025 122.553 5.09998H229.346L230.537 34.875H230.14C218.627 19.789 195.204 7.87899 177.339 7.87899C163.444 7.87899 152.725 15.422 152.725 33.287C152.725 53.931 167.414 70.605 201.159 70.605H217.833V96.41H217.436C201.556 84.103 184.882 73.781 172.972 68.223C165.826 65.444 160.665 63.856 153.916 63.062V279.824C185.279 276.648 223.391 271.09 240.462 252.828L239.271 283ZM275.237 283H245.065C249.432 274.663 257.372 246.079 257.372 171.046V36.463L244.271 5.09998H265.709L365.356 244.888V117.054C365.356 42.021 355.431 13.04 350.667 5.09998H380.839C376.472 13.04 368.532 42.021 368.532 117.054V283H358.607C325.656 203.203 293.102 123.406 260.151 44.006V171.046C260.151 246.079 270.076 274.663 275.237 283ZM389.759 269.899L385.392 192.881H386.186C395.714 242.903 418.74 281.015 451.691 282.206C481.863 283.397 497.346 258.783 492.185 220.671C487.421 184.147 463.998 160.724 441.369 138.492C418.343 115.863 387.774 89.661 387.774 53.137C387.774 16.216 412.388 1.924 444.545 1.924C470.35 1.924 482.657 9.06998 494.17 17.01L499.331 73.384H498.537C489.803 31.699 465.586 6.29099 440.575 5.89399C416.358 5.49698 402.463 16.613 402.463 43.212C402.463 74.972 428.268 95.616 449.309 115.863C473.923 139.683 502.507 166.282 507.271 209.158C512.829 258.386 487.024 286.176 451.691 286.176C425.489 286.176 403.654 278.236 389.759 269.899ZM584.686 144.844C584.686 65.047 618.431 4.70299 665.674 1.924C685.921 0.73299 704.58 9.467 720.857 27.729V97.204H720.46C711.726 36.86 689.494 8.27599 656.94 9.86399C619.225 11.849 600.963 58.695 600.963 129.758C600.963 200.424 630.341 268.311 674.805 268.311C702.198 268.311 721.651 238.536 730.782 199.233H731.973C725.224 234.169 705.771 286.97 663.292 286.176C620.019 285.382 584.686 222.656 584.686 144.844ZM779.132 283H737.05C744.196 269.105 750.151 232.581 750.151 190.896V87.279C750.151 45.594 740.623 13.04 737.05 5.09998H802.555C841.858 5.09998 868.457 17.804 865.678 51.152C863.296 80.53 842.255 94.425 811.289 128.17L844.24 207.57C854.959 232.978 866.472 262.356 878.382 283H845.431C845.431 268.311 835.506 236.551 826.375 214.319L797.791 145.638C781.911 169.061 769.604 199.63 769.604 230.596C769.604 251.24 771.986 263.547 779.132 283ZM750.151 263.944C768.016 188.117 777.147 163.503 819.626 108.717C832.727 91.646 844.24 70.208 844.24 49.961C844.24 28.523 831.536 7.87899 796.997 7.87899C773.574 7.87899 764.84 16.613 764.046 41.624C760.473 115.069 756.9 190.499 750.151 263.944ZM998.739 283C1000.33 272.281 1000.72 258.783 989.211 215.113L970.949 145.241H922.118C916.56 176.604 912.193 213.922 912.193 252.431C912.193 262.753 912.59 272.678 912.987 283H882.021C889.167 263.944 895.519 238.933 900.283 215.51C926.088 94.822 940.777 57.504 944.747 45.594V5.09998H954.672L1002.71 188.117C1018.99 250.049 1024.54 263.15 1033.67 283H998.739ZM945.938 51.152C942.365 61.474 931.646 95.219 922.912 142.065H970.155L945.938 51.152ZM1082.37 283H1037.9C1045.45 273.075 1051 254.019 1051 223.053V65.047C1051 34.081 1045.45 15.025 1037.9 5.09998H1144.7L1145.89 34.875H1145.49C1133.98 19.789 1110.55 7.87899 1092.69 7.87899C1078.79 7.87899 1068.07 15.422 1068.07 33.287C1068.07 53.931 1082.76 70.605 1116.51 70.605H1133.18V96.41H1132.79C1116.91 84.103 1100.23 73.781 1088.32 68.223C1081.18 65.444 1076.01 63.856 1069.27 63.062V223.45C1069.27 254.019 1074.82 273.075 1082.37 283ZM1152.61 36.86H1152.22L1155.79 5.09998H1282.83L1286.4 36.86H1286.01C1276.48 21.774 1265.36 8.27599 1249.08 8.27599C1234.4 8.27599 1228.44 15.422 1228.44 33.287V222.656C1228.44 253.225 1234 273.075 1241.54 283H1197.08C1204.62 273.075 1210.18 253.225 1210.18 222.656V33.287C1210.18 15.422 1204.62 8.27599 1189.53 8.27599C1172.86 8.27599 1161.74 21.774 1152.61 36.86Z" fill="#E04C26"/>
</svg>
